<mxfile host="app.diagrams.net" modified="2024-05-18T10:11:56.897Z" agent="Mozilla/5.0 (Windows NT 10.0; Win64; x64) AppleWebKit/537.36 (KHTML, like Gecko) Chrome/124.0.0.0 Safari/537.36" etag="wXuOYGPxm1f8GCbBD46q" version="24.4.0" type="device">
  <diagram name="Страница — 1" id="yOGkaw68GzQ7QMIFpuuN">
    <mxGraphModel dx="1049" dy="552" grid="1" gridSize="10" guides="1" tooltips="1" connect="1" arrows="1" fold="1" page="1" pageScale="1" pageWidth="827" pageHeight="1169" math="0" shadow="0">
      <root>
        <mxCell id="0" />
        <mxCell id="1" parent="0" />
        <mxCell id="rxmFq0c0A30B-aB6oaJQ-66" value="" style="group" parent="1" vertex="1" connectable="0">
          <mxGeometry x="10" y="340" width="170" height="190" as="geometry" />
        </mxCell>
        <mxCell id="rxmFq0c0A30B-aB6oaJQ-44" value="Користувачі (Users):" style="rounded=0;whiteSpace=wrap;html=1;" parent="rxmFq0c0A30B-aB6oaJQ-66" vertex="1">
          <mxGeometry x="60" y="10" width="170" height="30" as="geometry" />
        </mxCell>
        <mxCell id="rxmFq0c0A30B-aB6oaJQ-45" value="" style="rounded=0;whiteSpace=wrap;html=1;" parent="rxmFq0c0A30B-aB6oaJQ-66" vertex="1">
          <mxGeometry x="60" y="40" width="140" height="100" as="geometry" />
        </mxCell>
        <mxCell id="rxmFq0c0A30B-aB6oaJQ-50" value="1(PK)" style="rounded=0;whiteSpace=wrap;html=1;" parent="rxmFq0c0A30B-aB6oaJQ-66" vertex="1">
          <mxGeometry x="60" y="40" width="40" height="20" as="geometry" />
        </mxCell>
        <mxCell id="rxmFq0c0A30B-aB6oaJQ-51" value="ID користувача" style="rounded=0;whiteSpace=wrap;html=1;" parent="rxmFq0c0A30B-aB6oaJQ-66" vertex="1">
          <mxGeometry x="100" y="40" width="130" height="20" as="geometry" />
        </mxCell>
        <mxCell id="rxmFq0c0A30B-aB6oaJQ-52" value="2" style="rounded=0;whiteSpace=wrap;html=1;" parent="rxmFq0c0A30B-aB6oaJQ-66" vertex="1">
          <mxGeometry x="60" y="60" width="40" height="20" as="geometry" />
        </mxCell>
        <mxCell id="rxmFq0c0A30B-aB6oaJQ-53" value="3" style="rounded=0;whiteSpace=wrap;html=1;" parent="rxmFq0c0A30B-aB6oaJQ-66" vertex="1">
          <mxGeometry x="60" y="80" width="40" height="20" as="geometry" />
        </mxCell>
        <mxCell id="rxmFq0c0A30B-aB6oaJQ-54" value="4" style="rounded=0;whiteSpace=wrap;html=1;" parent="rxmFq0c0A30B-aB6oaJQ-66" vertex="1">
          <mxGeometry x="60" y="100" width="40" height="20" as="geometry" />
        </mxCell>
        <mxCell id="rxmFq0c0A30B-aB6oaJQ-55" value="5" style="rounded=0;whiteSpace=wrap;html=1;" parent="rxmFq0c0A30B-aB6oaJQ-66" vertex="1">
          <mxGeometry x="60" y="120" width="40" height="20" as="geometry" />
        </mxCell>
        <mxCell id="rxmFq0c0A30B-aB6oaJQ-56" value="Ім&#39;я" style="rounded=0;whiteSpace=wrap;html=1;" parent="rxmFq0c0A30B-aB6oaJQ-66" vertex="1">
          <mxGeometry x="100" y="60" width="130" height="20" as="geometry" />
        </mxCell>
        <mxCell id="rxmFq0c0A30B-aB6oaJQ-57" value="Електронна пошта" style="rounded=0;whiteSpace=wrap;html=1;" parent="rxmFq0c0A30B-aB6oaJQ-66" vertex="1">
          <mxGeometry x="100" y="80" width="130" height="20" as="geometry" />
        </mxCell>
        <mxCell id="rxmFq0c0A30B-aB6oaJQ-58" value="Пароль" style="rounded=0;whiteSpace=wrap;html=1;" parent="rxmFq0c0A30B-aB6oaJQ-66" vertex="1">
          <mxGeometry x="100" y="100" width="130" height="20" as="geometry" />
        </mxCell>
        <mxCell id="rxmFq0c0A30B-aB6oaJQ-59" value="Баланс&amp;nbsp;" style="rounded=0;whiteSpace=wrap;html=1;" parent="rxmFq0c0A30B-aB6oaJQ-66" vertex="1">
          <mxGeometry x="100" y="120" width="130" height="20" as="geometry" />
        </mxCell>
        <mxCell id="rxmFq0c0A30B-aB6oaJQ-67" value="" style="group" parent="1" vertex="1" connectable="0">
          <mxGeometry x="500" y="80" width="190" height="190" as="geometry" />
        </mxCell>
        <mxCell id="rxmFq0c0A30B-aB6oaJQ-86" value="" style="group" parent="rxmFq0c0A30B-aB6oaJQ-67" vertex="1" connectable="0">
          <mxGeometry x="-10" y="-20" width="200" height="170" as="geometry" />
        </mxCell>
        <mxCell id="rxmFq0c0A30B-aB6oaJQ-68" value="Магазин (Shop)" style="rounded=0;whiteSpace=wrap;html=1;" parent="rxmFq0c0A30B-aB6oaJQ-86" vertex="1">
          <mxGeometry width="170" height="30" as="geometry" />
        </mxCell>
        <mxCell id="rxmFq0c0A30B-aB6oaJQ-70" value="1(PK)" style="rounded=0;whiteSpace=wrap;html=1;" parent="rxmFq0c0A30B-aB6oaJQ-86" vertex="1">
          <mxGeometry y="30" width="40" height="20" as="geometry" />
        </mxCell>
        <mxCell id="rxmFq0c0A30B-aB6oaJQ-71" value="ID товару" style="rounded=0;whiteSpace=wrap;html=1;" parent="rxmFq0c0A30B-aB6oaJQ-86" vertex="1">
          <mxGeometry x="40" y="30" width="130" height="20" as="geometry" />
        </mxCell>
        <mxCell id="rxmFq0c0A30B-aB6oaJQ-72" value="2" style="rounded=0;whiteSpace=wrap;html=1;" parent="rxmFq0c0A30B-aB6oaJQ-86" vertex="1">
          <mxGeometry y="50" width="40" height="20" as="geometry" />
        </mxCell>
        <mxCell id="rxmFq0c0A30B-aB6oaJQ-73" value="3" style="rounded=0;whiteSpace=wrap;html=1;" parent="rxmFq0c0A30B-aB6oaJQ-86" vertex="1">
          <mxGeometry y="70" width="40" height="20" as="geometry" />
        </mxCell>
        <mxCell id="rxmFq0c0A30B-aB6oaJQ-74" value="4" style="rounded=0;whiteSpace=wrap;html=1;" parent="rxmFq0c0A30B-aB6oaJQ-86" vertex="1">
          <mxGeometry y="90" width="40" height="20" as="geometry" />
        </mxCell>
        <mxCell id="rxmFq0c0A30B-aB6oaJQ-76" value="Назва" style="rounded=0;whiteSpace=wrap;html=1;" parent="rxmFq0c0A30B-aB6oaJQ-86" vertex="1">
          <mxGeometry x="40" y="50" width="130" height="20" as="geometry" />
        </mxCell>
        <mxCell id="rxmFq0c0A30B-aB6oaJQ-77" value="Категорія" style="rounded=0;whiteSpace=wrap;html=1;" parent="rxmFq0c0A30B-aB6oaJQ-86" vertex="1">
          <mxGeometry x="40" y="70" width="130" height="20" as="geometry" />
        </mxCell>
        <mxCell id="rxmFq0c0A30B-aB6oaJQ-78" value="&lt;span style=&quot;white-space: pre;&quot;&gt;&#x9;&lt;/span&gt;Характеристики" style="rounded=0;whiteSpace=wrap;html=1;" parent="rxmFq0c0A30B-aB6oaJQ-86" vertex="1">
          <mxGeometry x="40" y="90" width="130" height="20" as="geometry" />
        </mxCell>
        <mxCell id="NUjGRvacO9o2jy-n-1EG-12" value="5" style="rounded=0;whiteSpace=wrap;html=1;" vertex="1" parent="rxmFq0c0A30B-aB6oaJQ-86">
          <mxGeometry y="110" width="40" height="20" as="geometry" />
        </mxCell>
        <mxCell id="NUjGRvacO9o2jy-n-1EG-13" value="Ціна" style="rounded=0;whiteSpace=wrap;html=1;" vertex="1" parent="rxmFq0c0A30B-aB6oaJQ-86">
          <mxGeometry x="40" y="110" width="130" height="20" as="geometry" />
        </mxCell>
        <mxCell id="rxmFq0c0A30B-aB6oaJQ-87" value="" style="group" parent="1" vertex="1" connectable="0">
          <mxGeometry x="500" y="280" width="200" height="170" as="geometry" />
        </mxCell>
        <mxCell id="rxmFq0c0A30B-aB6oaJQ-88" value="Конфігуратор (Configurator)" style="rounded=0;whiteSpace=wrap;html=1;" parent="rxmFq0c0A30B-aB6oaJQ-87" vertex="1">
          <mxGeometry width="200" height="30" as="geometry" />
        </mxCell>
        <mxCell id="rxmFq0c0A30B-aB6oaJQ-89" value="" style="rounded=0;whiteSpace=wrap;html=1;" parent="rxmFq0c0A30B-aB6oaJQ-87" vertex="1">
          <mxGeometry y="30" width="140" height="100" as="geometry" />
        </mxCell>
        <mxCell id="rxmFq0c0A30B-aB6oaJQ-90" value="1(PK)" style="rounded=0;whiteSpace=wrap;html=1;" parent="rxmFq0c0A30B-aB6oaJQ-87" vertex="1">
          <mxGeometry y="30" width="40" height="20" as="geometry" />
        </mxCell>
        <mxCell id="rxmFq0c0A30B-aB6oaJQ-91" value="ID Збірки" style="rounded=0;whiteSpace=wrap;html=1;" parent="rxmFq0c0A30B-aB6oaJQ-87" vertex="1">
          <mxGeometry x="40" y="30" width="160" height="20" as="geometry" />
        </mxCell>
        <mxCell id="rxmFq0c0A30B-aB6oaJQ-92" value="2" style="rounded=0;whiteSpace=wrap;html=1;" parent="rxmFq0c0A30B-aB6oaJQ-87" vertex="1">
          <mxGeometry y="50" width="40" height="20" as="geometry" />
        </mxCell>
        <mxCell id="rxmFq0c0A30B-aB6oaJQ-93" value="3" style="rounded=0;whiteSpace=wrap;html=1;" parent="rxmFq0c0A30B-aB6oaJQ-87" vertex="1">
          <mxGeometry y="70" width="40" height="20" as="geometry" />
        </mxCell>
        <mxCell id="rxmFq0c0A30B-aB6oaJQ-94" value="4" style="rounded=0;whiteSpace=wrap;html=1;" parent="rxmFq0c0A30B-aB6oaJQ-87" vertex="1">
          <mxGeometry y="90" width="40" height="20" as="geometry" />
        </mxCell>
        <mxCell id="rxmFq0c0A30B-aB6oaJQ-95" value="5" style="rounded=0;whiteSpace=wrap;html=1;" parent="rxmFq0c0A30B-aB6oaJQ-87" vertex="1">
          <mxGeometry y="110" width="40" height="20" as="geometry" />
        </mxCell>
        <mxCell id="rxmFq0c0A30B-aB6oaJQ-96" value="ID товару" style="rounded=0;whiteSpace=wrap;html=1;" parent="rxmFq0c0A30B-aB6oaJQ-87" vertex="1">
          <mxGeometry x="40" y="50" width="160" height="20" as="geometry" />
        </mxCell>
        <mxCell id="rxmFq0c0A30B-aB6oaJQ-97" value="Опис" style="rounded=0;whiteSpace=wrap;html=1;" parent="rxmFq0c0A30B-aB6oaJQ-87" vertex="1">
          <mxGeometry x="40" y="70" width="160" height="20" as="geometry" />
        </mxCell>
        <mxCell id="rxmFq0c0A30B-aB6oaJQ-98" value="BenchMark" style="rounded=0;whiteSpace=wrap;html=1;" parent="rxmFq0c0A30B-aB6oaJQ-87" vertex="1">
          <mxGeometry x="40" y="90" width="160" height="20" as="geometry" />
        </mxCell>
        <mxCell id="rxmFq0c0A30B-aB6oaJQ-99" value="Ціна" style="rounded=0;whiteSpace=wrap;html=1;" parent="rxmFq0c0A30B-aB6oaJQ-87" vertex="1">
          <mxGeometry x="40" y="110" width="160" height="20" as="geometry" />
        </mxCell>
        <mxCell id="1a-1OrjF5Etz6I9GNn9w-1" value="" style="group" parent="1" vertex="1" connectable="0">
          <mxGeometry x="170" y="60" width="190" height="190" as="geometry" />
        </mxCell>
        <mxCell id="1a-1OrjF5Etz6I9GNn9w-2" value="Уподобання (Preferences):" style="rounded=0;whiteSpace=wrap;html=1;" parent="1a-1OrjF5Etz6I9GNn9w-1" vertex="1">
          <mxGeometry width="190" height="30" as="geometry" />
        </mxCell>
        <mxCell id="1a-1OrjF5Etz6I9GNn9w-4" value="1(PK)" style="rounded=0;whiteSpace=wrap;html=1;" parent="1a-1OrjF5Etz6I9GNn9w-1" vertex="1">
          <mxGeometry y="30" width="40" height="20" as="geometry" />
        </mxCell>
        <mxCell id="1a-1OrjF5Etz6I9GNn9w-5" value="ID користувача" style="rounded=0;whiteSpace=wrap;html=1;" parent="1a-1OrjF5Etz6I9GNn9w-1" vertex="1">
          <mxGeometry x="40" y="30" width="150" height="20" as="geometry" />
        </mxCell>
        <mxCell id="1a-1OrjF5Etz6I9GNn9w-6" value="2(PK)" style="rounded=0;whiteSpace=wrap;html=1;" parent="1a-1OrjF5Etz6I9GNn9w-1" vertex="1">
          <mxGeometry y="50" width="40" height="20" as="geometry" />
        </mxCell>
        <mxCell id="1a-1OrjF5Etz6I9GNn9w-7" value="3" style="rounded=0;whiteSpace=wrap;html=1;" parent="1a-1OrjF5Etz6I9GNn9w-1" vertex="1">
          <mxGeometry y="70" width="40" height="20" as="geometry" />
        </mxCell>
        <mxCell id="1a-1OrjF5Etz6I9GNn9w-8" value="4" style="rounded=0;whiteSpace=wrap;html=1;" parent="1a-1OrjF5Etz6I9GNn9w-1" vertex="1">
          <mxGeometry y="90" width="40" height="20" as="geometry" />
        </mxCell>
        <mxCell id="1a-1OrjF5Etz6I9GNn9w-10" value="ID товару" style="rounded=0;whiteSpace=wrap;html=1;" parent="1a-1OrjF5Etz6I9GNn9w-1" vertex="1">
          <mxGeometry x="40" y="50" width="150" height="20" as="geometry" />
        </mxCell>
        <mxCell id="1a-1OrjF5Etz6I9GNn9w-11" value="Відеокарта (Nvidia / AMD)" style="rounded=0;whiteSpace=wrap;html=1;" parent="1a-1OrjF5Etz6I9GNn9w-1" vertex="1">
          <mxGeometry x="40" y="70" width="150" height="20" as="geometry" />
        </mxCell>
        <mxCell id="1a-1OrjF5Etz6I9GNn9w-12" value="Процесор (Intel / AMD)" style="rounded=0;whiteSpace=wrap;html=1;" parent="1a-1OrjF5Etz6I9GNn9w-1" vertex="1">
          <mxGeometry x="40" y="90" width="150" height="20" as="geometry" />
        </mxCell>
        <mxCell id="1a-1OrjF5Etz6I9GNn9w-20" value="" style="endArrow=none;html=1;rounded=0;entryX=0;entryY=0.5;entryDx=0;entryDy=0;exitX=1;exitY=0.5;exitDx=0;exitDy=0;" parent="1" source="rxmFq0c0A30B-aB6oaJQ-51" target="1a-1OrjF5Etz6I9GNn9w-4" edge="1">
          <mxGeometry width="50" height="50" relative="1" as="geometry">
            <mxPoint x="290" y="320" as="sourcePoint" />
            <mxPoint x="340" y="270" as="targetPoint" />
            <Array as="points">
              <mxPoint x="260" y="390" />
              <mxPoint x="260" y="240" />
              <mxPoint x="140" y="240" />
              <mxPoint x="140" y="100" />
            </Array>
          </mxGeometry>
        </mxCell>
        <mxCell id="NUjGRvacO9o2jy-n-1EG-14" value="" style="endArrow=none;html=1;rounded=0;entryX=0;entryY=0.5;entryDx=0;entryDy=0;" edge="1" parent="1" target="rxmFq0c0A30B-aB6oaJQ-70">
          <mxGeometry width="50" height="50" relative="1" as="geometry">
            <mxPoint x="360" y="120" as="sourcePoint" />
            <mxPoint x="410" y="70" as="targetPoint" />
            <Array as="points">
              <mxPoint x="420" y="120" />
              <mxPoint x="420" y="100" />
            </Array>
          </mxGeometry>
        </mxCell>
        <mxCell id="NUjGRvacO9o2jy-n-1EG-16" value="" style="endArrow=none;html=1;rounded=0;entryX=1;entryY=0.5;entryDx=0;entryDy=0;" edge="1" parent="1" target="rxmFq0c0A30B-aB6oaJQ-71">
          <mxGeometry width="50" height="50" relative="1" as="geometry">
            <mxPoint x="700" y="340" as="sourcePoint" />
            <mxPoint x="750" y="290" as="targetPoint" />
            <Array as="points">
              <mxPoint x="740" y="340" />
              <mxPoint x="740" y="100" />
            </Array>
          </mxGeometry>
        </mxCell>
      </root>
    </mxGraphModel>
  </diagram>
</mxfile>
